<!-- Generated by IcoMoon.io -->
<svg version="1.1" xmlns="http://www.w3.org/2000/svg" width="48" height="56" viewBox="0 0 48 56">
<title>gift</title>
<path d="M29 42.375v-22.375h-10v22.375c0 1.094 0.906 1.625 2 1.625h6c1.094 0 2-0.531 2-1.625zM14.75 16h6.094l-3.938-5.031c-0.344-0.406-1.094-0.969-2.156-0.969-1.656 0-3 1.344-3 3s1.344 3 3 3zM36.25 13c0-1.656-1.344-3-3-3-1.063 0-1.813 0.563-2.156 0.969l-3.906 5.031h6.062c1.656 0 3-1.344 3-3zM48 21v10c0 0.563-0.438 1-1 1h-3v13c0 1.656-1.344 3-3 3h-34c-1.656 0-3-1.344-3-3v-13h-3c-0.563 0-1-0.438-1-1v-10c0-0.563 0.438-1 1-1h13.75c-3.875 0-7-3.125-7-7s3.125-7 7-7c2.094 0 4.031 0.875 5.25 2.406l4 5.156 4-5.156c1.219-1.531 3.156-2.406 5.25-2.406 3.875 0 7 3.125 7 7s-3.125 7-7 7h13.75c0.563 0 1 0.438 1 1z"></path>
</svg>
