<!-- Generated by IcoMoon.io -->
<svg version="1.1" xmlns="http://www.w3.org/2000/svg" width="56" height="56" viewBox="0 0 56 56">
<title>heart-o</title>
<path d="M52 18.625c0-8.781-5.937-10.625-10.938-10.625-4.656 0-9.906 5.031-11.531 6.969-0.75 0.906-2.313 0.906-3.063 0-1.625-1.938-6.875-6.969-11.531-6.969-5 0-10.938 1.844-10.938 10.625 0 5.719 5.781 11.031 5.844 11.094l18.156 17.5 18.125-17.469c0.094-0.094 5.875-5.406 5.875-11.125zM56 18.625c0 7.5-6.875 13.781-7.156 14.063l-19.469 18.75c-0.375 0.375-0.875 0.563-1.375 0.563s-1-0.188-1.375-0.563l-19.5-18.813c-0.25-0.219-7.125-6.5-7.125-14 0-9.156 5.594-14.625 14.938-14.625 5.469 0 10.594 4.312 13.062 6.75 2.469-2.437 7.594-6.75 13.062-6.75 9.344 0 14.938 5.469 14.938 14.625z"></path>
</svg>
